<svg width="14" height="14" viewBox="0 0 14 14" fill="none" xmlns="http://www.w3.org/2000/svg">
<path fill-rule="evenodd" clip-rule="evenodd" d="M7 12.25C9.8995 12.25 12.25 9.8995 12.25 7C12.25 4.10051 9.8995 1.75 7 1.75C4.10051 1.75 1.75 4.10051 1.75 7C1.75 9.8995 4.10051 12.25 7 12.25ZM9.78145 5.62346C9.98769 5.37596 9.95425 5.00813 9.70676 4.80189C9.45926 4.59564 9.09144 4.62908 8.88519 4.87657L6.78638 7.39514C6.58413 7.63784 6.47043 7.77221 6.37965 7.85478L6.37619 7.85792L6.37245 7.85511C6.27457 7.7811 6.14917 7.65757 5.92577 7.43418L5.07913 6.58754C4.85133 6.35973 4.48198 6.35973 4.25417 6.58754C4.02637 6.81534 4.02637 7.18469 4.25417 7.41249L5.10082 8.25914L5.12463 8.28296L5.12464 8.28297C5.31509 8.47349 5.49831 8.65678 5.66878 8.78568C5.85975 8.93008 6.10983 9.06586 6.43032 9.05133C6.75081 9.03679 6.98757 8.87892 7.16468 8.71783C7.32278 8.57402 7.48866 8.37489 7.66108 8.1679L7.68264 8.14202L9.78145 5.62346Z" fill="currentColor"/>
</svg>
