<svg  viewBox="0 0 12 12" fill="none" xmlns="http://www.w3.org/2000/svg">
<path fill-rule="evenodd" clip-rule="evenodd" d="M6 11.25C8.8995 11.25 11.25 8.8995 11.25 6C11.25 3.10051 8.8995 0.75 6 0.75C3.10051 0.75 0.75 3.10051 0.75 6C0.75 8.8995 3.10051 11.25 6 11.25ZM8.47487 4.14384C8.64573 3.97299 8.64573 3.69598 8.47487 3.52512C8.30402 3.35427 8.02701 3.35427 7.85616 3.52512L6 5.38128L4.14384 3.52512C3.97299 3.35427 3.69598 3.35427 3.52513 3.52512C3.35427 3.69598 3.35427 3.97299 3.52513 4.14384L5.38128 6L3.52513 7.85615C3.35427 8.027 3.35427 8.30401 3.52513 8.47487C3.69598 8.64572 3.97299 8.64572 4.14384 8.47487L6 6.61871L7.85616 8.47487C8.02701 8.64572 8.30402 8.64572 8.47487 8.47487C8.64573 8.30401 8.64573 8.027 8.47487 7.85615L6.61872 6L8.47487 4.14384Z" fill="#C8C8C8"/>
</svg>
