<svg width="19" height="18" viewBox="0 0 19 18" fill="none" xmlns="http://www.w3.org/2000/svg">
<path fill-rule="evenodd" clip-rule="evenodd" d="M12.1893 2.25001C12.7751 1.66422 13.7249 1.66422 14.3107 2.25001L16.25 4.18935C16.8358 4.77514 16.8358 5.72488 16.25 6.31067L7.25 15.3107C6.9687 15.592 6.58716 15.75 6.18934 15.75H4.25C3.42157 15.75 2.75 15.0784 2.75 14.25V12.3107C2.75 11.9128 2.90803 11.5313 3.18934 11.25L12.1893 2.25001ZM12.0607 4.50001L14 6.43935L15.1893 5.25001L13.25 3.31067L12.0607 4.50001ZM12.9393 7.50001L11 5.56067L4.25 12.3107L4.25 14.25H6.18934L12.9393 7.50001Z" fill="#DEDEDE"/>
</svg>
