<svg width="24" height="24" viewBox="0 0 24 24" fill="none" xmlns="http://www.w3.org/2000/svg">
<path fill-rule="evenodd" clip-rule="evenodd" d="M12 24C18.6274 24 24 18.6274 24 12C24 5.37258 18.6274 0 12 0C5.37258 0 0 5.37258 0 12C0 18.6274 5.37258 24 12 24ZM10.7136 6C10.0449 6 9.42041 6.3342 9.04948 6.8906L8.50779 7.70313C8.38414 7.8886 8.17599 8 7.95309 8H7.33333C6.22876 8 5.33333 8.89543 5.33333 10V16C5.33333 17.1046 6.22876 18 7.33333 18H16.6667C17.7712 18 18.6667 17.1046 18.6667 16V10C18.6667 8.89543 17.7712 8 16.6667 8H16.0469C15.824 8 15.6159 7.8886 15.4922 7.70313L14.9505 6.8906C14.5796 6.3342 13.9551 6 13.2864 6H10.7136ZM12 11.3333C11.2636 11.3333 10.6667 11.9303 10.6667 12.6667C10.6667 13.403 11.2636 14 12 14C12.7364 14 13.3333 13.403 13.3333 12.6667C13.3333 11.9303 12.7364 11.3333 12 11.3333ZM9.33333 12.6667C9.33333 11.1939 10.5272 10 12 10C13.4728 10 14.6667 11.1939 14.6667 12.6667C14.6667 14.1394 13.4728 15.3333 12 15.3333C10.5272 15.3333 9.33333 14.1394 9.33333 12.6667Z" fill="#DAD5FF"/>
</svg>
