<svg width="24" height="24" viewBox="0 0 24 24" fill="currentColor" xmlns="http://www.w3.org/2000/svg">
<path d="M9 21H5C4.45 21 3.979 20.8043 3.587 20.413C3.19567 20.021 3 19.55 3 19V5C3 4.45 3.19567 3.979 3.587 3.587C3.979 3.19567 4.45 3 5 3H9V5H5V19H9V21ZM11 23V1H13V23H11ZM19 5V3C19.55 3 20.021 3.19567 20.413 3.587C20.8043 3.979 21 4.45 21 5H19ZM19 13V11H21V13H19ZM19 21V19H21C21 19.55 20.8043 20.021 20.413 20.413C20.021 20.8043 19.55 21 19 21ZM19 9V7H21V9H19ZM19 17V15H21V17H19ZM15 21V19H17V21H15ZM15 5V3H17V5H15Z" fill="currentColor"/>
</svg>
