<svg  viewBox="0 0 20 20" fill="none" xmlns="http://www.w3.org/2000/svg">
<path fill-rule="evenodd" clip-rule="evenodd" d="M10.1798 3.65381L7.78602 7.56123C7.30817 8.34125 6.44747 8.81852 5.51867 8.81852H3.42219V16.614H14.0015C14.4023 16.614 14.7534 16.3513 14.8588 15.9727L16.5449 9.91776C16.6991 9.36424 16.2735 8.81852 15.6876 8.81852H11.647C10.7041 8.81852 10.0276 7.92832 10.2986 7.04369L11.2016 4.09579C11.2547 3.92239 11.2175 3.73441 11.102 3.59302C10.857 3.29309 10.3817 3.32436 10.1798 3.65381ZM8.67446 2.76913C9.50575 1.41235 11.4636 1.2833 12.4729 2.51895C12.9486 3.10135 13.102 3.87547 12.8831 4.58991L12.1145 7.09915H15.6876C17.4311 7.09915 18.6974 8.72283 18.2386 10.3702M18.2386 10.3702L16.5525 16.425C16.2388 17.5518 15.1939 18.3334 14.0015 18.3334H3.07433C2.2969 18.3334 1.66663 17.7162 1.66663 16.9547V8.47783C1.66663 7.71641 2.29687 7.09915 3.07433 7.09915H5.51867C5.8308 7.09915 6.12004 6.93876 6.28063 6.67663L8.67446 2.76913" fill="currentColor"/>
<path fill-rule="evenodd" clip-rule="evenodd" d="M5.83329 7.50002C6.29353 7.50002 6.66663 7.87118 6.66663 8.32903V17.5043C6.66663 17.9622 6.29353 18.3334 5.83329 18.3334C5.37306 18.3334 4.99996 17.9622 4.99996 17.5043V8.32903C4.99996 7.87118 5.37306 7.50002 5.83329 7.50002Z" fill="currentColor"/>
</svg>
