<svg width="24" height="24" viewBox="0 0 24 24" fill="currentColor" xmlns="http://www.w3.org/2000/svg">
<path d="M11 22C10.1667 21.9167 9.36665 21.7123 8.59999 21.387C7.83332 21.0623 7.09999 20.6333 6.39999 20.1L7.79999 18.65C8.28332 19 8.79599 19.2833 9.33799 19.5C9.87932 19.7167 10.4333 19.8667 11 19.95V22ZM13 22V19.95C14.7333 19.7 16.1667 18.921 17.3 17.613C18.4333 16.3043 19 14.7833 19 13.05C19 11.1 18.3207 9.44599 16.962 8.08799C15.604 6.72932 13.95 6.04999 12 6.04999H11.8L13.4 7.64999L12 9.04999L7.99999 5.04999L12 1.04999L13.4 2.49999L11.85 4.04999H12C13.25 4.04999 14.421 4.28732 15.513 4.76199C16.6043 5.23732 17.5543 5.87899 18.363 6.68699C19.171 7.49565 19.8127 8.44565 20.288 9.53699C20.7627 10.629 21 11.8 21 13.05C21 15.3333 20.2417 17.321 18.725 19.013C17.2083 20.7043 15.3 21.7 13 22ZM4.94999 18.65C4.41665 17.95 3.98765 17.2167 3.66299 16.45C3.33765 15.6833 3.13332 14.8833 3.04999 14.05H5.09999C5.18332 14.6167 5.33332 15.1707 5.54999 15.712C5.76665 16.254 6.04999 16.7667 6.39999 17.25L4.94999 18.65ZM3.04999 12.05C3.14999 11.2 3.35832 10.3833 3.67499 9.59999C3.99165 8.81665 4.41665 8.09999 4.94999 7.44999L6.39999 8.84999C6.04999 9.33332 5.76665 9.84565 5.54999 10.387C5.33332 10.929 5.18332 11.4833 5.09999 12.05H3.04999Z" fill="currentColor"/>
</svg>
