<svg width="18" height="18" viewBox="0 0 18 18" fill="none" xmlns="http://www.w3.org/2000/svg">
<path fill-rule="evenodd" clip-rule="evenodd" d="M7.20865 3.81323C6.87016 4.28335 6.75 4.87002 6.75 5.25V6.75H13.5C14.7426 6.75 15.75 7.75736 15.75 9V14.25C15.75 15.4926 14.7426 16.5 13.5 16.5H4.5C3.25736 16.5 2.25 15.4926 2.25 14.25V9C2.25 7.75736 3.25736 6.75 4.5 6.75H5.25V5.25C5.25 4.62998 5.42984 3.71665 5.99135 2.93677C6.5804 2.11865 7.55556 1.5 9 1.5C10.7378 1.5 11.7699 2.39163 12.2909 3.3971C12.4815 3.76488 12.3378 4.2175 11.97 4.40806C11.6023 4.59862 11.1496 4.45496 10.9591 4.08718C10.6675 3.52438 10.1181 3 9 3C8.04444 3 7.5196 3.38135 7.20865 3.81323ZM4.5 8.25C4.08579 8.25 3.75 8.58579 3.75 9V14.25C3.75 14.6642 4.08579 15 4.5 15H13.5C13.9142 15 14.25 14.6642 14.25 14.25V9C14.25 8.58579 13.9142 8.25 13.5 8.25H4.5ZM9 9.75C9.41421 9.75 9.75 10.0858 9.75 10.5V12.75C9.75 13.1642 9.41421 13.5 9 13.5C8.58579 13.5 8.25 13.1642 8.25 12.75V10.5C8.25 10.0858 8.58579 9.75 9 9.75Z" fill="black"/>
</svg>
